<svg width="77" height="59" viewBox="0 0 77 59" fill="none" xmlns="http://www.w3.org/2000/svg">
<path d="M31.6611 43.2437H48.1699V47H27.0435V12.1641H31.6611V43.2437Z" fill="#CFCFCF"/>
<path d="M31.6611 43.2437H31.0611V43.8437H31.6611V43.2437ZM48.1699 43.2437H48.7699V42.6437H48.1699V43.2437ZM48.1699 47V47.6H48.7699V47H48.1699ZM27.0435 47H26.4435V47.6H27.0435V47ZM27.0435 12.1641V11.5641H26.4435V12.1641H27.0435ZM31.6611 12.1641H32.2611V11.5641H31.6611V12.1641ZM31.6611 43.8437H48.1699V42.6437H31.6611V43.8437ZM47.5699 43.2437V47H48.7699V43.2437H47.5699ZM48.1699 46.4H27.0435V47.6H48.1699V46.4ZM27.6435 47V12.1641H26.4435V47H27.6435ZM27.0435 12.7641H31.6611V11.5641H27.0435V12.7641ZM31.0611 12.1641V43.2437H32.2611V12.1641H31.0611Z" fill="black"/>
<path d="M52.896 30.8022L48.6372 35.2285V47H44.0435V12.1641H48.6372V29.3906L64.1172 12.1641H69.668L55.9585 27.5483L70.7446 47H65.2417L52.896 30.8022Z" fill="#26A69A"/>
<path d="M52.896 30.8022L53.3732 30.4385L52.9489 29.8819L52.4636 30.3862L52.896 30.8022ZM48.6372 35.2285L48.2048 34.8125L48.0372 34.9867V35.2285H48.6372ZM48.6372 47V47.6H49.2372V47H48.6372ZM44.0435 47H43.4435V47.6H44.0435V47ZM44.0435 12.1641V11.5641H43.4435V12.1641H44.0435ZM48.6372 12.1641H49.2372V11.5641H48.6372V12.1641ZM48.6372 29.3906H48.0372V30.956L49.0835 29.7917L48.6372 29.3906ZM64.1172 12.1641V11.5641H63.8497L63.6709 11.763L64.1172 12.1641ZM69.668 12.1641L70.1159 12.5632L71.0063 11.5641H69.668V12.1641ZM55.9585 27.5483L55.5106 27.1492L55.1818 27.5181L55.4808 27.9114L55.9585 27.5483ZM70.7446 47V47.6H71.9544L71.2223 46.6369L70.7446 47ZM65.2417 47L64.7645 47.3637L64.9446 47.6H65.2417V47ZM52.4636 30.3862L48.2048 34.8125L49.0696 35.6445L53.3284 31.2183L52.4636 30.3862ZM48.0372 35.2285V47H49.2372V35.2285H48.0372ZM48.6372 46.4H44.0435V47.6H48.6372V46.4ZM44.6435 47V12.1641H43.4435V47H44.6435ZM44.0435 12.7641H48.6372V11.5641H44.0435V12.7641ZM48.0372 12.1641V29.3906H49.2372V12.1641H48.0372ZM49.0835 29.7917L64.5635 12.5651L63.6709 11.763L48.1909 28.9896L49.0835 29.7917ZM64.1172 12.7641H69.668V11.5641H64.1172V12.7641ZM69.22 11.7649L55.5106 27.1492L56.4064 27.9475L70.1159 12.5632L69.22 11.7649ZM55.4808 27.9114L70.267 47.3631L71.2223 46.6369L56.4362 27.1852L55.4808 27.9114ZM70.7446 46.4H65.2417V47.6H70.7446V46.4ZM65.7189 46.6363L53.3732 30.4385L52.4188 31.166L64.7645 47.3637L65.7189 46.6363Z" fill="black"/>
<path d="M16.329 18.1384L6.31489 47.0492H1.25972L14.2587 12H18.351L31.326 47.0492H26.2949L16.329 18.1384Z" fill="white"/>
<path d="M16.329 18.1384L16.8962 17.9429L16.3303 16.3013L15.762 17.942L16.329 18.1384ZM6.31489 47.0492V47.6492H6.74204L6.88185 47.2456L6.31489 47.0492ZM1.25972 47.0492L0.697161 46.8406L0.397253 47.6492H1.25972V47.0492ZM14.2587 12V11.4H13.8413L13.6962 11.7914L14.2587 12ZM18.351 12L18.9137 11.7917L18.7687 11.4H18.351V12ZM31.326 47.0492V47.6492H32.1879L31.8887 46.8409L31.326 47.0492ZM26.2949 47.0492L25.7276 47.2448L25.8671 47.6492H26.2949V47.0492ZM15.762 17.942L5.74794 46.8528L6.88185 47.2456L16.8959 18.3348L15.762 17.942ZM6.31489 46.4492H1.25972V47.6492H6.31489V46.4492ZM1.82227 47.2579L14.8213 12.2086L13.6962 11.7914L0.697161 46.8406L1.82227 47.2579ZM14.2587 12.6H18.351V11.4H14.2587V12.6ZM17.7883 12.2083L30.7633 47.2575L31.8887 46.8409L18.9137 11.7917L17.7883 12.2083ZM31.326 46.4492H26.2949V47.6492H31.326V46.4492ZM26.8621 46.8537L16.8962 17.9429L15.7617 18.334L25.7276 47.2448L26.8621 46.8537Z" fill="black"/>
</svg>
